<svg id="Layer_1" data-name="Layer 1" xmlns="http://www.w3.org/2000/svg" viewBox="0 0 344 181"><defs><style>.cls-1{isolation:isolate;}.cls-2{fill:#195b5d;}</style></defs><title>Logo Green</title><g id="Group_14" data-name="Group 14"><g id="TFRO" class="cls-1"><g class="cls-1"><path class="cls-2" d="M6.87,22.93H83V47.4H76.06A67,67,0,0,0,73,37.83a18.94,18.94,0,0,0-3.2-5.34,9.9,9.9,0,0,0-3.62-2.6,16.35,16.35,0,0,0-5.8-.78H51.45v72a37.23,37.23,0,0,0,.46,6.61,10.59,10.59,0,0,0,1.4,3.91,6.53,6.53,0,0,0,2.57,2.25,23.89,23.89,0,0,0,5.06,1.58v3.44H28.81v-3.44a36.88,36.88,0,0,0,3.73-1.06A8.88,8.88,0,0,0,35.17,113,6.54,6.54,0,0,0,36.86,111a12,12,0,0,0,1-3.45,39,39,0,0,0,.39-6.4v-72H29.44a19.71,19.71,0,0,0-5.45.64,8.78,8.78,0,0,0-4,2.63,19.42,19.42,0,0,0-3.34,5.7,63.9,63.9,0,0,0-2.85,9.32h-7Z"/><path class="cls-2" d="M160.22,22.93V44.16h-6.89a60.48,60.48,0,0,0-3-7.73,16.09,16.09,0,0,0-3-4.5,8.78,8.78,0,0,0-3.69-2.18,20,20,0,0,0-5.56-.64h-20.6V67.36H132a9.81,9.81,0,0,0,4.85-1,7.69,7.69,0,0,0,2.92-3.41,34.46,34.46,0,0,0,2.21-7.39h6.61V85.22h-6.61a33,33,0,0,0-2.25-7.2,8.14,8.14,0,0,0-2.85-3.45,9.41,9.41,0,0,0-4.88-1H117.47v27.56a37.51,37.51,0,0,0,.49,6.75,9.57,9.57,0,0,0,1.62,4,6.75,6.75,0,0,0,3,2.22,33.15,33.15,0,0,0,4.71,1.37v3.44H96.1v-3.44c2.9-.75,4.85-1.58,5.83-2.5a6.76,6.76,0,0,0,1.94-3.9,48.24,48.24,0,0,0,.45-7.73V40.51a49.44,49.44,0,0,0-.35-7.07A8.75,8.75,0,0,0,102.81,30a6.06,6.06,0,0,0-2.14-2,24.15,24.15,0,0,0-4.57-1.65V22.93Z"/><path class="cls-2" d="M194.82,77.21v23.9a50.45,50.45,0,0,0,.38,7.35,9.21,9.21,0,0,0,1.16,3.45,6.08,6.08,0,0,0,2.11,1.9,24.15,24.15,0,0,0,4.57,1.65v3.44H173.37v-3.44c2.91-.75,4.85-1.58,5.84-2.5a6.82,6.82,0,0,0,1.93-3.9,46.83,46.83,0,0,0,.46-7.73V40.51a51,51,0,0,0-.35-7.07A9.08,9.08,0,0,0,180.09,30a6.09,6.09,0,0,0-2.15-2,23.88,23.88,0,0,0-4.57-1.65V22.93h34.81q16.44,0,24.61,6t8.15,18.57a25.68,25.68,0,0,1-5.31,16.38q-5.31,6.75-15.92,10.55V75a20.51,20.51,0,0,1,7.34,5,50.49,50.49,0,0,1,6.79,10.16l6.33,11.53a70,70,0,0,0,4.71,7.73,17.49,17.49,0,0,0,4,4.08,13.37,13.37,0,0,0,5.41,2v3.44H234.82a82.34,82.34,0,0,1-5.06-8q-2.38-4.29-4.71-8.72l-6.19-11.74a76.11,76.11,0,0,0-4.6-7.88A14.13,14.13,0,0,0,211,79a9.26,9.26,0,0,0-3.23-1.4,25.29,25.29,0,0,0-5.17-.39Zm0-47.81V71.16h7.94a45.25,45.25,0,0,0,9.92-.88,18.3,18.3,0,0,0,7-3.34,17.11,17.11,0,0,0,5.17-6.85,27,27,0,0,0,1.93-10.8,24,24,0,0,0-2.29-11.1,15.14,15.14,0,0,0-6.92-6.75q-4.65-2.32-12.52-2.33Q198.75,29.11,194.82,29.4Z"/><path class="cls-2" d="M297.4,120A41,41,0,0,1,282,117.25a29.83,29.83,0,0,1-11.88-8.65,40.92,40.92,0,0,1-7.67-15,77.77,77.77,0,0,1-2.7-21.87q0-15.67,4.78-26.93t13.67-17.12a36.64,36.64,0,0,1,20.64-5.87q12.51,0,21.06,5.52T332.8,43.56q4.33,10.72,4.33,26.13,0,16.44-4.92,27.77T318.32,114.4A38.54,38.54,0,0,1,297.4,120ZM274.27,69.76q0,21.58,6.29,32.83T299,113.84A18.59,18.59,0,0,0,312,109q5.34-4.87,8-14.3a81.18,81.18,0,0,0,2.67-22q0-15.33-3.12-25.42T311,32.56A18.89,18.89,0,0,0,298.39,28a19.49,19.49,0,0,0-10.87,3A22.88,22.88,0,0,0,280,39.35a42.79,42.79,0,0,0-4.36,13.18A99.56,99.56,0,0,0,274.27,69.76Z"/></g></g><g id="TOANDFRO" class="cls-1"><g class="cls-1"><path class="cls-2" d="M19,158.9H17.16V145.55H13.4v-1.64h9.38v1.64H19Z"/><path class="cls-2" d="M67.05,151.41c0,3.78-.69,7.79-4.83,7.79s-4.83-4-4.83-7.79.7-7.79,4.83-7.79S67.05,147.63,67.05,151.41Zm-7.73,0c0,3.46.34,6.28,2.9,6.28s2.9-2.82,2.9-6.28-.34-6.28-2.9-6.28S59.32,147.94,59.32,151.41Z"/><path class="cls-2" d="M105.65,143.91h2.48l4,15h-1.93l-1.07-4.11h-4.79l-1.11,4.11h-1.93Zm-.9,9.37h4L106.87,146h0Z"/><path class="cls-2" d="M146.64,143.91H149l5,12.52h0V143.91h1.85v15h-2.54l-4.81-12.13h0V158.9h-1.85Z"/><path class="cls-2" d="M191.94,143.91h4c4.64,0,5.25,3.36,5.25,7.5,0,3.78-.95,7.49-5.06,7.49h-4.2Zm1.85,13.48h1.93c3.19,0,3.55-3.27,3.55-6,0-2.9-.19-6-3.55-6h-1.93Z"/><path class="cls-2" d="M236.86,143.91h7.75v1.64h-5.9v4.7h5.56v1.64h-5.56v7h-1.85Z"/><path class="cls-2" d="M279.62,143.91h4.84a3.5,3.5,0,0,1,3.85,3.76c0,1.6-.57,3.38-2.31,3.78v0a2.46,2.46,0,0,1,2.12,2.5l.12,2.56c.07,1.66.36,2.08.8,2.35h-2.22a4.61,4.61,0,0,1-.51-2.16l-.12-2.33c-.17-2.06-1.28-2.18-2.23-2.18h-2.5v6.67h-1.84Zm1.84,6.81h1.83c1.09,0,3.09,0,3.09-2.9,0-1.49-1-2.4-2.71-2.4h-2.21Z"/></g><g class="cls-1"><path class="cls-2" d="M333.39,151.41c0,3.78-.69,7.79-4.83,7.79s-4.82-4-4.82-7.79.69-7.79,4.82-7.79S333.39,147.63,333.39,151.41Zm-7.72,0c0,3.46.33,6.28,2.89,6.28s2.9-2.82,2.9-6.28-.33-6.28-2.9-6.28S325.67,147.94,325.67,151.41Z"/></g></g></g></svg>